<?xml version="1.0" encoding="UTF-8"?>
<svg id="Layer_1" xmlns="http://www.w3.org/2000/svg" version="1.1" viewBox="0 0 256 256">
  <!-- Generator: Adobe Illustrator 30.0.0, SVG Export Plug-In . SVG Version: 2.1.1 Build 123)  -->
  <defs>
    <style>
      .st0 {
        fill: none;
        stroke: #231f20;
        stroke-miterlimit: 10;
        stroke-width: 8px;
      }
    </style>
  </defs>
  <path class="st0" d="M39.14,150.21c-6.13.02-11.12-4.93-11.14-11.07,0-2.56.87-5.05,2.48-7.04L140.44,18.82c2.01-2.32,5.52-2.57,7.83-.56,1.62,1.4,2.29,3.61,1.72,5.67l-21.33,66.86c-2.15,5.75.77,12.14,6.52,14.29,1.25.47,2.58.71,3.92.7h77.75c6.13-.02,11.12,4.93,11.14,11.07,0,2.56-.87,5.05-2.48,7.04l-109.96,113.29c-2.01,2.32-5.52,2.57-7.83.56-1.62-1.4-2.29-3.61-1.72-5.67l21.33-66.86c2.15-5.75-.77-12.14-6.52-14.29-1.25-.47-2.58-.71-3.92-.7H39.14Z"/>
</svg>