<svg xmlns="http://www.w3.org/2000/svg" fill="none" version="1.1" viewBox="0 0 128 128">
  <!-- Generator: Adobe Illustrator 30.0.0, SVG Export Plug-In . SVG Version: 2.1.1 Build 123)  -->
  <defs>
    <style>
      path { stroke: #000; }
      @media (prefers-color-scheme: dark) {
      path { stroke: #FFF; }
      }
    </style>
  </defs>
  <path
    d="M14.24,76.68c-3.44.01-6.23-2.76-6.24-6.2,0-1.43.49-2.83,1.39-3.94L70.97,3.1c1.12-1.3,3.09-1.44,4.39-.31.91.78,1.28,2.02.96,3.18l-11.94,37.44c-1.2,3.22.43,6.8,3.65,8,.7.26,1.45.4,2.2.39h43.54c3.44-.01,6.23,2.76,6.24,6.2,0,1.43-.49,2.83-1.39,3.94l-61.58,63.44c-1.12,1.3-3.09,1.44-4.39.31-.91-.78-1.28-2.02-.96-3.18l11.94-37.44c1.2-3.22-.43-6.8-3.65-8-.7-.26-1.45-.4-2.2-.39H14.24Z" />
</svg>